<svg width="818" height="1105" viewBox="0 0 818 1105" fill="none" xmlns="http://www.w3.org/2000/svg">
<rect width="818" height="1105" fill="#1E1E1E"/>
<rect width="818" height="1105" fill="white"/>
<path d="M111.167 128.333C110.062 128.333 109.002 128.772 108.22 129.554C107.439 130.335 107 131.395 107 132.5V155.417H111.167C111.167 157.074 111.825 158.664 112.997 159.836C114.169 161.008 115.759 161.667 117.417 161.667C119.074 161.667 120.664 161.008 121.836 159.836C123.008 158.664 123.667 157.074 123.667 155.417H136.167C136.167 157.074 136.825 158.664 137.997 159.836C139.169 161.008 140.759 161.667 142.417 161.667C144.074 161.667 145.664 161.008 146.836 159.836C148.008 158.664 148.667 157.074 148.667 155.417H152.833V145L146.583 136.667H140.333V128.333M125.75 132.5L134.083 140.833L125.75 149.167V142.917H113.25V138.75H125.75M140.333 139.792H145.542L149.646 145H140.333M117.417 152.292C118.245 152.292 119.04 152.621 119.626 153.207C120.212 153.793 120.542 154.588 120.542 155.417C120.542 156.245 120.212 157.04 119.626 157.626C119.04 158.212 118.245 158.542 117.417 158.542C116.588 158.542 115.793 158.212 115.207 157.626C114.621 157.04 114.292 156.245 114.292 155.417C114.292 154.588 114.621 153.793 115.207 153.207C115.793 152.621 116.588 152.292 117.417 152.292ZM142.417 152.292C143.245 152.292 144.04 152.621 144.626 153.207C145.212 153.793 145.542 154.588 145.542 155.417C145.542 156.245 145.212 157.04 144.626 157.626C144.04 158.212 143.245 158.542 142.417 158.542C141.588 158.542 140.793 158.212 140.207 157.626C139.621 157.04 139.292 156.245 139.292 155.417C139.292 154.588 139.621 153.793 140.207 153.207C140.793 152.621 141.588 152.292 142.417 152.292Z" fill="black"/>
</svg>
